<svg width="24" height="24" viewBox="0 0 24 24" fill="none" xmlns="http://www.w3.org/2000/svg">
<path d="M18.0772 13.3341C17.8725 13.0418 17.8266 12.7459 17.9385 12.4461C18.2176 11.6463 22.2819 6.56612 20.5888 6.56612C19.4253 6.5824 18.0261 6.56612 16.9107 6.56612C16.7036 6.61918 16.5696 6.73357 16.4858 6.96631C15.8335 8.54946 15.0354 10.4815 13.8656 11.7231C13.7117 11.8538 13.6157 11.8482 13.4404 11.7999C12.6198 10.8905 13.4948 7.77508 12.9958 6.54405C12.8974 6.30309 12.6822 6.19425 12.4619 6.13296C11.3479 5.85349 8.8036 6.01984 8.38847 6.5824C8.26979 6.74322 8.25324 6.83098 8.33891 6.84542C8.73445 6.9111 9.01446 7.06824 9.17926 7.31666C9.49016 8.03737 9.71928 11.8764 8.8036 11.8764C7.88792 11.8764 6.41135 8.1088 6.00571 7.06436C5.89777 6.74988 5.62297 6.56959 5.33343 6.51637L2.62443 6.53818C2.14825 6.53818 1.88213 6.78543 2.0509 7.28357C3.46186 10.9703 6.54953 18.1164 11.2852 17.9375C11.7596 17.9375 12.5758 18.1292 12.9463 17.6963C13.4554 16.9852 12.8345 15.7188 13.7076 15.2359C13.9277 15.1126 14.156 15.2159 14.3451 15.3676C15.3163 16.146 15.8319 17.5122 17.0296 17.927C17.2401 18 17.4246 18.0183 17.5831 17.9818L20.114 17.938C20.5839 17.938 21.0468 17.7179 20.9495 17.1266C20.5805 15.8585 19.1102 14.555 18.0772 13.3341Z" fill="#A2C1C4"/>
</svg>
