<svg width="19" height="18" viewBox="0 0 19 18" fill="none" xmlns="http://www.w3.org/2000/svg">
<path d="M16.9999 12.69V14.94C17.0008 15.1489 16.958 15.3556 16.8743 15.547C16.7907 15.7384 16.6679 15.9102 16.514 16.0514C16.3601 16.1926 16.1784 16.3001 15.9805 16.367C15.7826 16.4339 15.573 16.4588 15.3649 16.44C13.0571 16.1892 10.8402 15.4006 8.89245 14.1375C7.08032 12.986 5.54395 11.4496 4.39245 9.6375C3.12493 7.6809 2.33613 5.45324 2.08995 3.135C2.07121 2.9276 2.09586 2.71857 2.16233 2.52121C2.22879 2.32386 2.33563 2.14251 2.47602 1.98871C2.61642 1.83491 2.7873 1.71203 2.97779 1.62789C3.16828 1.54375 3.37421 1.50019 3.58245 1.5H5.83245C6.19643 1.49641 6.54929 1.62531 6.82527 1.86265C7.10125 2.09999 7.28151 2.42958 7.33245 2.79C7.42742 3.51005 7.60354 4.21704 7.85745 4.8975C7.95836 5.16594 7.9802 5.45768 7.92038 5.73816C7.86056 6.01863 7.7216 6.27608 7.51995 6.48L6.56745 7.4325C7.63512 9.31015 9.18979 10.8648 11.0675 11.9325L12.0199 10.98C12.2239 10.7783 12.4813 10.6394 12.7618 10.5796C13.0423 10.5197 13.334 10.5416 13.6024 10.6425C14.2829 10.8964 14.9899 11.0725 15.71 11.1675C16.0743 11.2189 16.407 11.4024 16.6448 11.6831C16.8827 11.9638 17.0091 12.3222 16.9999 12.69Z" stroke="#ED5B54" stroke-width="2" stroke-linecap="round" stroke-linejoin="round"/>
</svg>
